<svg width="256.000000" height="256.000000" viewBox="0 0 256 256" fill="none" xmlns="http://www.w3.org/2000/svg" xmlns:xlink="http://www.w3.org/1999/xlink">
	<desc>
			Created with Pixso.
	</desc>
	<g clip-path="url(#clip12_36)">
		<path id="矢量 3" d="M136.945 224.051C137.261 224.334 137.583 224.609 137.912 224.877C137.603 224.588 137.281 224.313 136.945 224.051ZM118.088 224.877C118.417 224.609 118.739 224.333 119.055 224.051C118.719 224.313 118.397 224.588 118.088 224.877ZM122.34 93.9091C122.34 93.9091 122.34 93.9091 122.34 93.9091L122.34 93.9091L122.34 93.9091L122.34 93.9091L122.34 93.9091L122.34 93.9091L122.34 93.9091L122.34 93.9091L122.34 93.9091C122.34 93.9091 122.34 93.9091 122.34 93.9091C122.34 93.9091 122.34 93.9091 122.34 93.9091C122.34 93.9091 122.34 93.9091 122.34 93.9091C122.34 93.9091 122.34 93.9091 122.34 93.9091C122.34 93.9091 122.34 93.9091 122.34 93.9091C122.34 93.9091 122.34 93.9091 122.34 93.9091C122.34 93.9091 122.34 93.9091 122.34 93.9091C122.34 93.9091 122.34 93.9091 122.34 93.9091C122.34 93.9091 122.34 93.9091 122.34 93.9091C122.34 93.9091 122.34 93.9091 122.34 93.9091C122.34 93.9091 122.34 93.9091 122.34 93.9091C122.34 93.9091 122.34 93.9091 122.34 93.9091C122.34 93.9091 122.34 93.9091 122.34 93.9091C122.34 93.9091 122.34 93.9091 122.34 93.9091C122.34 93.9091 122.34 93.9091 122.34 93.9091C122.34 93.9091 122.34 93.9091 122.34 93.9091L122.34 93.9091L122.34 93.9091L122.34 93.9091L122.34 93.9091L122.34 93.9091L122.34 93.9091L122.34 93.9091L122.34 93.9091L122.34 93.9091L122.34 93.9091L122.34 93.9091L122.34 93.9091L122.34 93.9091L122.34 93.9091L122.34 93.9091L122.34 93.9091L122.34 93.9091L122.34 93.9091L122.34 93.9091L122.34 93.9091L122.34 93.9091L122.34 93.9091L122.34 93.9091L122.34 93.9091L122.34 93.9091L122.34 93.9091L122.34 93.9091L122.34 93.9091L122.34 93.9091L122.34 93.9091L122.34 93.9091L122.34 93.9091L122.34 93.9091L122.34 93.9091L122.34 93.9091L122.34 93.9091L122.34 93.9091L122.34 93.9091L122.34 93.9091L122.34 93.9091L122.34 93.9091L122.34 93.9091L122.34 93.9091L122.34 93.9091L122.34 93.9091L122.34 93.9091L122.34 93.9091L122.34 93.9091C122.34 93.9091 122.34 93.9091 122.34 93.9091C122.34 93.9091 122.34 93.9091 122.34 93.9091C122.34 93.9091 122.34 93.9091 122.34 93.9091C122.34 93.9091 122.34 93.9091 122.34 93.9091C122.34 93.9091 122.34 93.9091 122.34 93.9091C122.34 93.9091 122.34 93.9091 122.34 93.9091C122.34 93.9091 122.34 93.9091 122.34 93.9091C122.34 93.9091 122.34 93.9091 122.34 93.9091C122.34 93.9091 122.34 93.9091 122.34 93.9091C122.34 93.9091 122.34 93.9091 122.34 93.9091C122.34 93.9091 122.34 93.9091 122.34 93.9091C122.34 93.9091 122.34 93.9091 122.34 93.9091C122.34 93.9091 122.34 93.9091 122.34 93.9091C122.34 93.9091 122.34 93.9091 122.34 93.9091C122.34 93.9091 122.34 93.9091 122.34 93.9091L122.34 93.9091L122.34 93.9091L122.34 93.9091L122.34 93.9091L122.34 93.9091L122.34 93.9091L122.34 93.9091L122.34 93.9091L122.34 93.9091L122.34 93.9091L122.34 93.9091L122.34 93.9091L122.34 93.9091L122.34 93.9091L122.34 93.9091L122.34 93.9091L122.34 93.9091L122.34 93.9091L122.34 93.9091L122.34 93.9091L122.34 93.9091L122.34 93.9091L122.34 93.9091L122.34 93.9091L122.34 93.9091L122.34 93.9091L122.34 93.9091L122.34 93.9091L122.34 93.9091L122.34 93.9091L122.34 93.9091L122.34 93.9091L122.34 93.9091L122.34 93.9091L122.34 93.9091L122.34 93.9091L122.34 93.9091L122.34 93.9091L122.34 93.9091L122.34 93.9091L122.34 93.9091L122.34 93.9091L122.34 93.9091L122.34 93.9091L122.34 93.9091L122.34 93.9091L122.34 93.9091L122.34 93.9091C122.34 93.9091 122.34 93.9091 122.34 93.9091C122.34 93.9091 122.34 93.9091 122.34 93.9091C122.34 93.9091 122.34 93.9091 122.34 93.9091C122.34 93.9091 122.34 93.9091 122.34 93.9091L122.34 93.9091C122.34 93.9231 122.34 93.9165 122.34 93.9091L122.34 93.9091C122.34 93.9091 122.34 93.9091 122.34 93.9091C122.34 93.9091 122.34 93.9091 122.34 93.9091C122.34 93.9091 122.34 93.9091 122.34 93.9091C122.34 93.9091 122.34 93.9091 122.34 93.9091L122.34 93.9091L122.34 93.9091L122.34 93.9091L122.34 93.9091L122.34 93.9091L122.34 93.9091L122.34 93.9091L122.34 93.9091L122.34 93.9091L122.34 93.9091L122.34 93.9091L122.34 93.9091L122.34 93.9091C122.34 93.9091 122.34 93.9091 122.34 93.9091C122.34 93.9091 122.34 93.9091 122.34 93.9091C122.34 93.9091 122.34 93.9091 122.34 93.9091C122.34 93.9091 122.34 93.9091 122.34 93.9091L122.34 93.9091L122.34 93.9091L122.34 93.9091L122.34 93.9091L122.34 93.9091L122.34 93.9091L122.34 93.9091L122.34 93.9091L122.34 93.9091L122.34 93.9091L122.34 93.9091L122.34 93.9091L122.34 93.9091L122.34 93.9091L122.34 93.9091L122.34 93.9091L122.34 93.9091L122.34 93.9091L122.34 93.9091L122.34 93.9091L122.34 93.9091L122.34 93.9091L122.34 93.9091L122.34 93.9091L122.34 93.9091L122.34 93.9091L122.34 93.9091L122.34 93.9091L122.34 93.9091L122.34 93.9091L122.34 93.9091L122.34 93.9091L122.34 93.9091L122.34 93.9091L122.34 93.9091L122.34 93.9091L122.34 93.9091L122.34 93.9091L122.34 93.9091L122.34 93.9091L122.34 93.9091L122.34 93.9091L122.34 93.9091L122.34 93.9091L122.34 93.9091L122.34 93.9091L122.34 93.9091L122.34 93.9091L122.34 93.9091L122.34 93.9091L122.34 93.9091L122.34 93.9091L122.34 93.9091L122.34 93.9091L122.34 93.9091L122.34 93.9091L122.34 93.9091L122.34 93.9091L122.34 93.9091C122.34 93.9091 122.34 93.9091 122.34 93.9091C122.34 93.9091 122.34 93.9091 122.34 93.9091C122.34 93.9091 122.34 93.9091 122.34 93.9091C122.34 93.9091 122.34 93.9091 122.34 93.9091C122.34 93.9091 122.34 93.9091 122.34 93.9091L122.34 93.9091L122.34 93.9091L122.34 93.9091L122.34 93.9091L122.34 93.9091L122.34 93.9091L122.34 93.9091L122.34 93.9091L122.34 93.9091L122.34 93.9091L122.34 93.9091L122.34 93.9091C122.34 93.9091 122.34 93.9091 122.34 93.9091C122.34 93.9091 122.34 93.9091 122.34 93.9091C122.34 93.9091 122.34 93.9091 122.34 93.9091C122.34 93.9091 122.34 93.9091 122.34 93.9091L122.34 93.9091L122.34 93.9091L122.34 93.9091L122.34 93.9091L122.34 93.9091L122.34 93.9091L122.34 93.9091L122.34 93.9091L122.34 93.9091L122.34 93.9091L122.34 93.9091L122.34 93.9091L122.34 93.9091C122.34 93.9091 122.34 93.9091 122.34 93.9091C122.34 93.9091 122.34 93.9091 122.34 93.9091C122.34 93.9091 122.34 93.9091 122.34 93.9091C122.34 93.9091 122.34 93.9091 122.34 93.9091L122.34 93.9091L122.34 93.9091L122.34 93.9091L122.34 93.9091L122.34 93.9091L122.34 93.9091L122.34 93.9091L122.34 93.9091L122.34 93.9091L122.34 93.9091L122.34 93.9091L122.34 93.9091L122.34 93.9091L122.34 93.9091L122.34 93.9091L122.34 93.9091L122.34 93.9091L122.34 93.9091L122.34 93.9091L122.34 93.9091L122.34 93.9091L122.34 93.9091L122.34 93.9091L122.34 93.9091L122.34 93.9091L122.34 93.9091L122.34 93.9091L122.34 93.9091L122.34 93.9091L122.34 93.9091L122.34 93.9091L122.34 93.9091L122.34 93.9091L122.34 93.9091L122.34 93.9091L122.34 93.9091L122.34 93.9091L122.34 93.9091L122.34 93.9091L122.34 93.9091L122.34 93.9091L122.34 93.9091L122.34 93.9091L122.34 93.9091L122.34 93.9091L122.34 93.9091L122.34 93.9091L122.34 93.9091L122.34 93.9091L122.34 93.9091L122.34 93.9091L122.34 93.9091L122.34 93.9091L122.34 93.9091L122.34 93.9091L122.34 93.9091L122.34 93.9091L122.34 93.9091C122.34 93.9091 122.34 93.9091 122.34 93.9091C122.34 93.9091 122.34 93.9091 122.34 93.9091C122.34 93.9091 122.34 93.9091 122.34 93.9091C122.34 93.9091 122.34 93.9091 122.34 93.9091L122.34 93.9091L122.34 93.9091L122.34 93.9091L122.34 93.9091L122.34 93.9091L122.34 93.9091L122.34 93.9091L122.34 93.9091L122.34 93.9091L122.34 93.9091L122.34 93.9091L122.34 93.9091L122.34 93.9091C122.34 93.9091 122.34 93.9091 122.34 93.9091C122.34 93.9091 122.34 93.9091 122.34 93.9091C122.34 93.9091 122.34 93.9091 122.34 93.9091C122.34 93.9091 122.34 93.9091 122.34 93.9091L122.34 93.9091L122.34 93.9091L122.34 93.9091L122.34 93.9091L122.34 93.9091L122.34 93.9091L122.34 93.9091L122.34 93.9091L122.34 93.9091L122.34 93.9091L122.34 93.9091L122.34 93.9091C122.34 93.9091 122.34 93.9091 122.34 93.9091L122.34 93.9091L122.34 93.9091L122.34 93.9091L122.34 93.9091L122.34 93.9091L122.34 93.9091L122.34 93.9091L122.34 93.9091L122.34 93.9091L122.34 93.9091L122.34 93.9091L122.34 93.9091L122.34 93.9091L122.34 93.9091L122.34 93.9091L122.34 93.9091L122.34 93.9091L122.34 93.9091L122.34 93.9091L122.34 93.9091L122.34 93.9091L122.34 93.9091L122.34 93.9091L122.34 93.9091L122.34 93.9091L122.34 93.9091L122.34 93.9091L122.34 93.9091L122.34 93.9091L122.34 93.9091L122.34 93.9091L122.34 93.9091L122.34 93.9091L122.34 93.9091L122.34 93.9091L122.34 93.9091L122.34 93.9091L122.34 93.9091L122.34 93.9091L122.34 93.9091L122.34 93.9091L122.34 93.9091L122.34 93.9091L122.34 93.9091C122.34 93.9091 122.34 93.9091 122.34 93.9091C122.34 93.9091 122.34 93.9091 122.34 93.9091C122.34 93.9091 122.34 93.9091 122.34 93.9091C122.34 93.9091 122.34 93.9091 122.34 93.9091L122.34 93.9091L122.34 93.9091L122.34 93.9091L122.34 93.9091L122.34 93.9091L122.34 93.9091L122.34 93.9091L122.34 93.9091L122.34 93.9091L122.34 93.9091L122.34 93.9091L122.34 93.9091C122.34 93.9091 122.34 93.9091 122.34 93.9091C122.34 93.9091 122.34 93.9091 122.34 93.9091C122.34 93.9091 122.34 93.9091 122.34 93.9091C122.34 93.9091 122.34 93.9091 122.34 93.9091L122.34 93.9091L122.34 93.9091L122.34 93.9091L122.34 93.9091L122.34 93.9091L122.34 93.9091L122.34 93.9091L122.34 93.9091L122.34 93.9091L122.34 93.9091L122.34 93.9091L122.34 93.9091C122.34 93.9091 122.34 93.9091 122.34 93.9091C122.34 93.9091 122.34 93.9091 122.34 93.9091C122.34 93.9091 122.34 93.9091 122.34 93.9091C122.34 93.9091 122.34 93.9091 122.34 93.9091L122.34 93.9091L122.34 93.9091L122.34 93.9091L122.34 93.9091L122.34 93.9091L122.34 93.9091C122.34 93.9014 122.34 93.8934 122.34 93.9091ZM62.1566 144.364C47.1108 134.364 36.7336 113.789 57.9249 87.5455C87.1911 63.8666 94.1518 46.3447 91.3077 8C121.635 44.207 122.338 72.105 122.34 93.9091C122.329 115.717 92.9496 119.674 94.1288 162.545C94.1288 162.545 77.2023 154.364 62.1566 144.364ZM84.6038 184.281C84.6038 184.281 66.4257 182.12 58.652 178.295C40.4455 169.335 28 151.243 28 130.382C28 121.949 30.0336 108.745 33.6604 101.636C33.6604 130.382 54.8868 152.84 82.717 160.476C111.565 176.908 120.683 188.815 122.34 215.273C112.884 205.894 105.449 204.044 91.6793 204.044C71.6346 204.044 56.2627 195.58 50.5356 178.296C56.5111 182.078 76.891 184.281 84.6038 184.281ZM164.692 8C161.848 46.3447 168.809 63.8666 198.075 87.5455C219.266 113.789 208.889 134.364 193.843 144.364C178.798 154.364 161.871 162.545 161.871 162.545C163.051 119.666 133.66 115.727 133.66 93.9091C133.66 72.0909 134.321 44.2592 164.692 8ZM171.396 184.281C179.109 184.281 199.489 182.078 205.464 178.296C199.737 195.58 184.365 204.044 164.321 204.044C150.551 204.044 143.116 205.894 133.66 215.273C135.317 188.815 144.435 176.908 173.283 160.476C201.113 152.84 222.34 130.382 222.34 101.636C225.966 108.745 228 121.949 228 130.382C228 151.243 215.554 169.335 197.348 178.295C189.574 182.12 171.396 184.281 171.396 184.281ZM142.151 234.507C142.151 241.959 135.815 248 128 248C120.185 248 113.849 241.959 113.849 234.507C113.849 230.736 115.472 227.326 118.088 224.877C118.417 224.609 118.739 224.333 119.055 224.051C124.56 219.128 128 212.129 128 204.364C128 212.129 131.44 219.128 136.945 224.051C137.261 224.334 137.583 224.609 137.912 224.877C140.528 227.326 142.151 230.736 142.151 234.507ZM122.528 151.817L101.589 146.44L122.528 141.092L128.268 120.727L133.849 141.092L154.947 146.44L133.849 151.817L128.268 172.153L122.528 151.817Z" fill-rule="evenodd" fill="#FDE7AC"/>
		<path id="矢量 3" d="M62.1566 144.364C47.1108 134.364 36.7336 113.789 57.9249 87.5455C87.1911 63.8666 94.1518 46.3447 91.3077 8C121.635 44.207 122.338 72.105 122.34 93.9091C122.335 102.901 117.338 108.858 111.549 115.759C103.297 125.596 93.4359 137.35 94.1288 162.545C94.1288 162.545 77.2023 154.364 62.1566 144.364ZM164.692 8C134.321 44.2592 133.66 72.0909 133.66 93.9091C133.66 102.907 138.659 108.865 144.451 115.767C152.703 125.6 162.564 137.351 161.871 162.545C161.871 162.545 178.798 154.364 193.843 144.364C208.889 134.364 219.266 113.789 198.075 87.5455C168.809 63.8666 161.848 46.3447 164.692 8ZM162.317 14.1165Q145.702 35.414 139.714 56.9067Q137.118 66.2209 136.231 76.5514Q135.66 83.1905 135.66 93.9091Q135.66 99.4175 138.623 104.637Q140.507 107.955 145.983 114.481Q150.257 119.574 152.375 122.512Q155.984 127.52 158.328 132.55Q163.758 144.199 163.901 159.308Q167.154 157.661 171.271 155.441Q183.411 148.896 192.736 142.698Q198.441 138.907 202.222 133.772Q206.361 128.15 207.583 121.675Q210.502 106.209 196.651 88.9657Q185.388 79.8347 178.587 71.8126Q171.32 63.2405 167.495 54.04Q163.699 44.9045 162.602 33.4667Q161.804 25.1433 162.317 14.1165ZM119.762 76.551Q120.338 83.216 120.34 93.9001L120.34 93.9173Q120.334 99.417 117.374 104.631Q115.491 107.948 110.016 114.474Q105.743 119.568 103.625 122.507Q100.016 127.517 97.6716 132.548Q92.2423 144.199 92.0992 159.308Q88.8486 157.662 84.7339 155.444Q72.5903 148.897 63.2636 142.698Q57.5593 138.907 53.7784 133.772Q49.6394 128.15 48.4171 121.675Q45.4978 106.209 59.3491 88.9657Q70.6118 79.8348 77.4131 71.8126Q84.6805 63.2405 88.5045 54.04Q92.3014 44.9047 93.3979 33.4667Q94.1959 25.1438 93.6831 14.117Q110.273 35.3869 116.269 56.8928Q118.869 66.2161 119.762 76.551ZM50.5356 178.296C56.5111 182.078 76.891 184.281 84.6038 184.281C84.6038 184.281 66.4257 182.12 58.652 178.295C40.4455 169.335 28 151.243 28 130.382C28 121.949 30.0336 108.745 33.6604 101.636C33.6604 130.382 54.8868 152.84 82.717 160.476C111.565 176.908 120.683 188.815 122.34 215.273C112.884 205.894 105.449 204.044 91.6793 204.044C71.6346 204.044 56.2627 195.58 50.5356 178.296ZM205.464 178.296C199.489 182.078 179.109 184.281 171.396 184.281C171.396 184.281 189.574 182.12 197.348 178.295C215.554 169.335 228 151.243 228 130.382C228 121.949 225.966 108.745 222.34 101.636C222.34 130.382 201.113 152.84 173.283 160.476C144.435 176.908 135.317 188.815 133.66 215.273C143.116 205.894 150.551 204.044 164.321 204.044C184.365 204.044 199.737 195.58 205.464 178.296ZM181.094 180.756Q175.64 181.762 171.16 182.295Q171.07 182.306 170.981 182.325Q170.892 182.343 170.805 182.37Q170.719 182.397 170.635 182.432Q170.551 182.466 170.47 182.508Q170.39 182.55 170.313 182.6Q170.237 182.649 170.165 182.705Q170.094 182.761 170.027 182.823Q169.961 182.885 169.901 182.953Q169.841 183.021 169.787 183.094Q169.733 183.167 169.686 183.245Q169.639 183.322 169.599 183.404Q169.559 183.486 169.527 183.571Q169.494 183.656 169.47 183.743Q169.446 183.831 169.429 183.92Q169.413 184.009 169.404 184.1Q169.396 184.19 169.396 184.281Q169.396 184.379 169.406 184.477Q169.415 184.575 169.435 184.671Q169.454 184.768 169.482 184.862Q169.511 184.956 169.548 185.046Q169.586 185.137 169.632 185.224Q169.679 185.31 169.733 185.392Q169.788 185.474 169.85 185.55Q169.913 185.626 169.982 185.695Q170.051 185.765 170.127 185.827Q170.203 185.889 170.285 185.944Q170.367 185.999 170.453 186.045Q170.54 186.091 170.631 186.129Q170.722 186.166 170.816 186.195Q170.91 186.223 171.006 186.243Q171.102 186.262 171.2 186.271Q171.298 186.281 171.396 186.281Q178.762 186.281 189.379 184.684Q197.153 183.515 201.821 182.027Q197.617 190.861 189.226 195.941Q179.144 202.044 164.321 202.044Q153.148 202.044 146.723 204.25Q141.357 206.092 136.087 210.389Q136.837 203.64 138.408 198.438Q140.608 191.154 144.89 185.294Q149.168 179.44 156.383 173.828Q163.155 168.56 174.056 162.337Q195.942 156.265 209.761 140.28Q221.031 127.243 223.589 111.267Q224.112 113.414 224.563 115.873Q226 123.71 226 130.382Q226 145.19 217.827 157.708Q209.861 169.908 196.465 176.5Q191.854 178.769 181.094 180.756ZM86.6038 184.281Q86.6038 184.19 86.5955 184.1Q86.5873 184.009 86.5709 183.92Q86.5545 183.831 86.53 183.743Q86.5056 183.656 86.4733 183.571Q86.4411 183.486 86.4013 183.404Q86.3614 183.322 86.3143 183.245Q86.2673 183.167 86.2134 183.094Q86.1594 183.021 86.0991 182.953Q86.0388 182.885 85.9726 182.823Q85.9063 182.761 85.8347 182.705Q85.7631 182.649 85.6868 182.6Q85.6104 182.55 85.5299 182.508Q85.4493 182.466 85.3653 182.432Q85.2813 182.397 85.1946 182.37Q85.1078 182.343 85.0189 182.325Q84.9301 182.306 84.8398 182.295Q80.3597 181.763 74.9061 180.756Q64.1457 178.769 59.5351 176.5Q46.1391 169.908 38.1732 157.708Q30 145.19 30 130.382Q30 123.71 31.4373 115.873Q31.8884 113.414 32.411 111.267Q34.9684 127.243 46.2394 140.28Q60.0584 156.265 81.9437 162.337Q92.8448 168.56 99.6172 173.828Q106.832 179.44 111.11 185.294Q115.392 191.154 117.592 198.438Q119.163 203.64 119.913 210.389Q114.643 206.092 109.277 204.25Q102.852 202.044 91.6793 202.044Q76.8563 202.044 66.774 195.941Q58.3828 190.861 54.179 182.027Q58.847 183.515 66.6208 184.684Q77.2376 186.281 84.6038 186.281Q84.702 186.281 84.7998 186.271Q84.8976 186.262 84.9939 186.243Q85.0903 186.223 85.1843 186.195Q85.2783 186.166 85.3691 186.129Q85.4599 186.091 85.5465 186.045Q85.6332 185.999 85.7149 185.944Q85.7966 185.889 85.8726 185.827Q85.9485 185.765 86.018 185.695Q86.0874 185.626 86.1498 185.55Q86.2121 185.474 86.2667 185.392Q86.3213 185.31 86.3676 185.224Q86.4139 185.137 86.4515 185.046Q86.4891 184.956 86.5176 184.862Q86.5462 184.768 86.5653 184.671Q86.5845 184.575 86.5941 184.477Q86.6038 184.379 86.6038 184.281ZM101.589 146.44L122.528 151.817L128.268 172.153L133.849 151.817L154.947 146.44L133.849 141.092L128.268 120.727L122.528 141.092L101.589 146.44ZM128.241 164.695L124.453 151.274Q124.417 151.148 124.366 151.028Q124.314 150.908 124.247 150.795Q124.181 150.683 124.1 150.58Q124.019 150.477 123.925 150.386Q123.832 150.295 123.727 150.216Q123.623 150.138 123.509 150.074Q123.395 150.01 123.273 149.961Q123.152 149.912 123.025 149.88L109.651 146.445L123.023 143.03Q123.15 142.997 123.271 142.949Q123.393 142.9 123.507 142.836Q123.621 142.772 123.726 142.693Q123.831 142.615 123.925 142.524Q124.018 142.432 124.099 142.329Q124.18 142.226 124.247 142.114Q124.314 142.001 124.366 141.881Q124.417 141.761 124.453 141.635L128.241 128.195L131.92 141.621Q131.955 141.748 132.007 141.87Q132.058 141.991 132.125 142.105Q132.192 142.219 132.273 142.323Q132.354 142.427 132.449 142.52Q132.543 142.612 132.649 142.692Q132.754 142.771 132.869 142.836Q132.985 142.9 133.107 142.949Q133.23 142.998 133.358 143.031L146.828 146.445L133.355 149.879Q133.228 149.911 133.105 149.961Q132.983 150.01 132.868 150.074Q132.753 150.139 132.648 150.218Q132.542 150.297 132.448 150.39Q132.354 150.482 132.273 150.586Q132.192 150.69 132.125 150.804Q132.058 150.918 132.007 151.039Q131.956 151.16 131.921 151.288L128.241 164.695ZM119.055 224.051C124.56 219.128 128 212.129 128 204.364C128 212.129 131.44 219.128 136.945 224.051C137.281 224.313 137.603 224.588 137.912 224.877C140.528 227.326 142.151 230.736 142.151 234.507C142.151 241.959 135.815 248 128 248C120.185 248 113.849 241.959 113.849 234.507C113.849 230.736 115.472 227.326 118.088 224.877C118.397 224.588 118.719 224.313 119.055 224.051ZM119.407 226.382Q115.849 229.743 115.849 234.507Q115.849 239.24 119.374 242.601Q122.939 246 128 246Q133.061 246 136.626 242.601Q140.151 239.24 140.151 234.507Q140.151 229.744 136.593 226.382Q136.093 225.972 135.612 225.542Q131.094 221.502 128.594 216.115Q128.278 215.434 128 214.744Q127.722 215.434 127.406 216.115Q124.906 221.501 120.388 225.542Q119.907 225.972 119.407 226.382Z" fill-rule="evenodd" fill="#997E57"/>
	</g>
	<defs>
		<clipPath id="clip12_36">
			<rect id="achievements" width="256.000000" height="256.000000" fill="white"/>
		</clipPath>
	</defs>
</svg>
