<svg width="256.000000" height="256.000000" viewBox="0 0 256 256" fill="none" xmlns="http://www.w3.org/2000/svg" xmlns:xlink="http://www.w3.org/1999/xlink">
	<desc>
			Created with Pixso.
	</desc>
	<g clip-path="url(#clip5_8)">
		<circle id="椭圆 1" cx="128.000000" cy="128.000000" r="128.000000" fill="#E0DBCE"/>
		<ellipse id="椭圆 2" cx="128.000015" cy="128.000000" rx="115.000015" ry="114.999985" fill="#E0DBCE"/>
		<ellipse id="椭圆 2" cx="128.000015" cy="128.000000" rx="119.000015" ry="118.999985" stroke="#4B5366" stroke-width="8.000000"/>
		<path id="矢量 1" d="M156.494 164.75L132.303 123.865C130.367 120.593 125.633 120.593 123.697 123.865L99.5064 164.75C98.5774 166.32 98.5774 168.272 99.5064 169.842L123.697 210.727C125.633 213.999 130.367 213.999 132.303 210.727L156.494 169.842C157.423 168.272 157.423 166.32 156.494 164.75ZM141.494 164.75L132.303 149.217C130.367 145.945 125.633 145.945 123.697 149.217L114.506 164.75C113.577 166.32 113.577 168.272 114.506 169.842L123.697 185.375C125.633 188.647 130.367 188.647 132.303 185.375L141.494 169.842C142.423 168.272 142.423 166.32 141.494 164.75Z" fill-rule="evenodd" fill="#96979A"/>
		<path id="矢量 2" d="M168.352 164.761L194.232 164.76C198.105 164.76 200.507 160.548 198.535 157.214L132.304 45.273C130.368 42.0011 125.633 42.0011 123.697 45.273L57.4648 157.214C55.4927 160.547 57.8952 164.761 61.768 164.761L87.6494 164.761C89.4167 164.761 91.0527 163.828 91.9526 162.307L123.697 108.653C125.633 105.381 130.368 105.381 132.304 108.653L164.048 162.307C164.948 163.828 166.584 164.761 168.352 164.761Z" fill-rule="evenodd" fill="#4B5366"/>
	</g>
	<defs>
		<clipPath id="clip5_8">
			<rect id="top" width="256.000000" height="256.000000" fill="white"/>
		</clipPath>
	</defs>
</svg>
