<svg width="256.000000" height="256.000000" viewBox="0 0 256 256" fill="none" xmlns="http://www.w3.org/2000/svg" xmlns:xlink="http://www.w3.org/1999/xlink">
	<desc>
			Created with Pixso.
	</desc>
	<g clip-path="url(#clip5_5)">
		<rect id="矩形 2" x="9.500000" y="85.500000" width="237.000000" height="157.000000" fill="#EBD49E"/>
		<rect id="矩形 2" x="9.500000" y="85.500000" width="237.000000" height="157.000000" stroke="#E3C896" stroke-width="3.000000"/>
		<path id="矩形 3" d="M156.949 172.445L158.985 181.268C159.415 183.131 160.869 184.585 162.732 185.015L171.555 187.051C173.622 187.528 173.622 190.472 171.555 190.949L162.732 192.985C160.869 193.415 159.415 194.869 158.985 196.732L156.949 205.555C156.472 207.622 153.528 207.622 153.051 205.555L151.015 196.732C150.585 194.869 149.131 193.415 147.268 192.985L138.445 190.949C136.378 190.472 136.378 187.528 138.445 187.051L147.268 185.015C149.131 184.585 150.585 183.131 151.015 181.268L153.051 172.445C153.528 170.378 156.472 170.378 156.949 172.445Z" fill-rule="evenodd" fill="#FFFFFF"/>
		<path id="矩形 3" d="M110.949 109.445L117.672 138.58C118.102 140.443 119.557 141.898 121.42 142.328L150.555 149.051C152.622 149.528 152.622 152.472 150.555 152.949L121.42 159.672C119.557 160.102 118.102 161.557 117.672 163.42L110.949 192.555C110.472 194.622 107.528 194.622 107.051 192.555L100.328 163.42C99.8978 161.557 98.443 160.102 96.58 159.672L67.4447 152.949C65.3777 152.472 65.3777 149.528 67.4447 149.051L96.58 142.328C98.443 141.898 99.8978 140.443 100.328 138.58L107.051 109.445C107.528 107.378 110.472 107.378 110.949 109.445Z" fill-rule="evenodd" fill="#FFFFFF"/>
		<path id="椭圆 3" d="M14 250C7.37258 250 2 244.627 2 238L14 238L14 250Z" fill-rule="evenodd" fill="#E3C896"/>
		<path id="椭圆 3" d="M2 238L14 238L14 250C7.37258 250 2 244.627 2 238Z" stroke="#E4D7C3"/>
		<path id="椭圆 3" d="M254 238C254 244.627 248.627 250 242 250L242 238L254 238Z" fill-rule="evenodd" fill="#E3C896"/>
		<path id="椭圆 3" d="M2 90C2 83.3726 7.37258 78 14 78L14 90L2 90Z" fill-rule="evenodd" fill="#E3C896"/>
		<path id="椭圆 3" d="M14 78L14 90L2 90C2 83.3726 7.37258 78 14 78Z" stroke="#E4D7C3"/>
		<path id="椭圆 3" d="M242 78C248.627 78 254 83.3726 254 90L242 90L242 78Z" fill-rule="evenodd" fill="#E3C896"/>
		<path id="椭圆 3" d="M254 90L242 90L242 78C248.627 78 254 83.3726 254 90Z" stroke="#E4D7C3"/>
		<path id="直线 1" d="M60.1531 86.1458C84.4071 61.8971 99.3141 52.4191 128.216 44.1047" stroke="#E3C896" stroke-width="3.000000"/>
		<path id="直线 1" d="M127 44.1049C159.542 54.9357 174.691 64.0218 195.065 86.1426" stroke="#E3C896" stroke-width="3.000000"/>
		<circle id="椭圆 3" cx="128.000000" cy="42.000000" r="10.000000" fill="#E4D7C3"/>
		<circle id="椭圆 3" cx="128.000000" cy="42.000000" r="11.000000" stroke="#E3C896" stroke-width="2.000000"/>
	</g>
	<defs>
		<clipPath id="clip5_5">
			<rect id="board" width="256.000000" height="256.000000" fill="white"/>
		</clipPath>
	</defs>
</svg>
