<svg width="250.000000" height="250.000000" viewBox="0 0 250 250" fill="none" xmlns="http://www.w3.org/2000/svg" xmlns:xlink="http://www.w3.org/1999/xlink">
	<desc>
			Created with Pixso.
	</desc>
	<circle id="椭圆 3" cx="125.000000" cy="125.000000" r="125.000000" fill="#313131"/>
	<path id="icon" d="M117.258 125L66.6035 175.654C64.4655 177.792 64.4655 181.259 66.6035 183.397C68.7415 185.535 72.2079 185.535 74.3458 183.397L125 132.742L175.654 183.397C177.792 185.535 181.259 185.535 183.397 183.397C185.535 181.259 185.535 177.792 183.397 175.654L132.742 125L183.397 74.3458C185.535 72.2079 185.535 68.7415 183.397 66.6035C181.259 64.4655 177.792 64.4655 175.654 66.6035L125 117.258L74.3458 66.6035C72.2079 64.4655 68.7415 64.4655 66.6035 66.6035C64.4655 68.7415 64.4655 72.2079 66.6035 74.3458L117.258 125Z" fill-rule="evenodd" fill="#38A2E4"/>
	<defs/>
</svg>
