<svg width="256.000000" height="256.000000" viewBox="0 0 256 256" fill="none" xmlns="http://www.w3.org/2000/svg" xmlns:xlink="http://www.w3.org/1999/xlink">
	<desc>
			Created with Pixso.
	</desc>
	<g clip-path="url(#clip13_20)">
		<rect id="矩形 4" x="140.633972" y="19.633972" rx="20.000000" width="121.999992" height="202.000000" transform="rotate(30 140.633972 19.633972)" fill="#FDE7AC"/>
		<rect id="矩形 4" x="140.633972" y="19.633972" rx="20.000000" width="121.999992" height="202.000000" transform="rotate(30 140.633972 19.633972)" stroke="#C2AB78" stroke-width="2.000000" stroke-linejoin="round"/>
		<path id="矩形 2 (边框)" d="M137.348 179.475L144.396 186.504C145.153 187.259 145.451 188.36 145.179 189.393L142.558 199.324C141.775 202.291 145.424 204.381 147.587 202.204L154.782 194.962C155.543 194.196 156.655 193.898 157.696 194.181L167.36 196.804C170.334 197.611 172.447 193.947 170.258 191.778L163.153 184.738C162.385 183.977 162.086 182.862 162.37 181.82L165.05 171.957C165.856 168.995 162.219 166.878 160.041 169.041L152.746 176.287C151.986 177.042 150.881 177.334 149.848 177.054L140.251 174.455C137.282 173.651 135.17 177.303 137.348 179.475Z" fill-rule="evenodd" fill="#FFFFFF"/>
		<path id="矩形 2 (边框)" d="M144.396 186.504C145.153 187.259 145.451 188.36 145.179 189.393L142.558 199.324C141.775 202.291 145.424 204.381 147.587 202.204L154.782 194.962C155.543 194.196 156.655 193.898 157.696 194.181L167.36 196.804C170.334 197.611 172.447 193.947 170.258 191.778L163.153 184.738C162.385 183.977 162.086 182.862 162.37 181.82L165.05 171.957C165.856 168.995 162.219 166.878 160.041 169.041L152.746 176.287C151.986 177.042 150.881 177.334 149.848 177.054L140.251 174.455C137.282 173.651 135.17 177.303 137.348 179.475L144.396 186.504Z" stroke="#EBD49E" stroke-width="3.000000" stroke-linejoin="round"/>
		<path id="矩形 2 (边框)" d="M102.882 117.18L126.195 140.429C126.952 141.184 127.25 142.285 126.977 143.319L118.441 175.665C117.658 178.632 121.307 180.721 123.47 178.545L146.974 154.887C147.734 154.122 148.847 153.824 149.888 154.106L181.877 162.789C184.851 163.597 186.963 159.932 184.774 157.763L161.243 134.446C160.476 133.686 160.176 132.571 160.46 131.528L169.218 99.3072C170.023 96.3451 166.387 94.2287 164.209 96.3918L140.443 119.995C139.683 120.75 138.579 121.042 137.545 120.762L105.785 112.16C102.816 111.356 100.704 115.008 102.882 117.18Z" fill-rule="evenodd" fill="#FFFFFF"/>
		<path id="矩形 2 (边框)" d="M126.195 140.429C126.952 141.184 127.25 142.285 126.977 143.319L118.441 175.665C117.658 178.632 121.307 180.721 123.47 178.545L146.974 154.887C147.734 154.122 148.847 153.824 149.888 154.106L181.877 162.789C184.851 163.597 186.963 159.932 184.774 157.763L161.243 134.446C160.476 133.686 160.176 132.571 160.46 131.528L169.218 99.3072C170.023 96.3451 166.387 94.2287 164.209 96.3918L140.443 119.995C139.683 120.75 138.579 121.042 137.545 120.762L105.785 112.16C102.816 111.356 100.704 115.008 102.882 117.18L126.195 140.429Z" stroke="#EBD49E" stroke-width="3.000000" stroke-linejoin="round"/>
		<rect id="矩形 4" x="89.056702" y="12.775253" rx="20.000000" width="121.999992" height="202.000000" transform="rotate(15 89.056702 12.775253)" fill="#FDE7AC"/>
		<rect id="矩形 4" x="89.056702" y="12.775253" rx="20.000000" width="121.999992" height="202.000000" transform="rotate(15 89.056702 12.775253)" stroke="#C2AB78" stroke-width="2.000000" stroke-linejoin="round"/>
		<path id="矩形 2 (边框)" d="M127.252 168.02L135.88 172.985C136.807 173.519 137.379 174.505 137.383 175.574L137.422 185.845C137.434 188.913 141.5 189.987 143.025 187.325L148.101 178.467C148.637 177.531 149.635 176.955 150.714 176.959L160.727 176.991C163.809 177.001 164.901 172.915 162.225 171.386L153.54 166.425C152.602 165.889 152.025 164.89 152.028 163.809L152.065 153.588C152.076 150.519 148.016 149.416 146.472 152.069L141.301 160.956C140.762 161.881 139.771 162.45 138.7 162.447L128.757 162.42C125.681 162.412 124.587 166.486 127.252 168.02Z" fill-rule="evenodd" fill="#FFFFFF"/>
		<path id="矩形 2 (边框)" d="M135.88 172.985C136.807 173.519 137.379 174.505 137.383 175.574L137.422 185.845C137.434 188.913 141.5 189.987 143.025 187.325L148.101 178.467C148.637 177.531 149.635 176.955 150.714 176.959L160.727 176.991C163.809 177.001 164.901 172.915 162.225 171.386L153.54 166.425C152.602 165.889 152.025 164.89 152.028 163.809L152.065 153.588C152.076 150.519 148.016 149.416 146.472 152.069L141.301 160.956C140.762 161.881 139.771 162.45 138.7 162.447L128.757 162.42C125.681 162.412 124.587 166.486 127.252 168.02L135.88 172.985Z" stroke="#EBD49E" stroke-width="3.000000" stroke-linejoin="round"/>
		<path id="矩形 2 (边框)" d="M77.8381 116.769L106.374 133.191C107.3 133.725 107.873 134.711 107.877 135.78L108.004 169.233C108.015 172.302 112.081 173.376 113.606 170.714L130.187 141.779C130.723 140.843 131.721 140.267 132.799 140.27L165.945 140.378C169.027 140.388 170.119 136.302 167.443 134.773L138.679 118.341C137.741 117.805 137.163 116.806 137.167 115.725L137.288 82.3357C137.299 79.2661 133.238 78.1629 131.695 80.816L114.848 109.766C114.309 110.692 113.318 111.26 112.247 111.257L79.3426 111.168C76.2668 111.16 75.1722 115.234 77.8381 116.769Z" fill-rule="evenodd" fill="#FFFFFF"/>
		<path id="矩形 2 (边框)" d="M106.374 133.191C107.3 133.725 107.873 134.711 107.877 135.78L108.004 169.233C108.015 172.302 112.081 173.376 113.606 170.714L130.187 141.779C130.723 140.843 131.721 140.267 132.799 140.27L165.945 140.378C169.027 140.388 170.119 136.302 167.443 134.773L138.679 118.341C137.741 117.805 137.163 116.806 137.167 115.725L137.288 82.3357C137.299 79.2661 133.238 78.1629 131.695 80.816L114.848 109.766C114.309 110.692 113.318 111.26 112.247 111.257L79.3426 111.168C76.2668 111.16 75.1722 115.234 77.8381 116.769L106.374 133.191Z" stroke="#EBD49E" stroke-width="3.000000" stroke-linejoin="round"/>
		<rect id="矩形 4" x="40.000000" y="20.000000" rx="20.000000" width="121.999992" height="202.000000" fill="#FDE7AC"/>
		<rect id="矩形 4" x="40.000000" y="20.000000" rx="20.000000" width="121.999992" height="202.000000" stroke="#C2AB78" stroke-width="2.000000" stroke-linejoin="round"/>
		<path id="矩形 2 (边框)" d="M117.075 160.069L126.693 162.632C127.726 162.908 128.535 163.712 128.816 164.744L131.511 174.654C132.317 177.615 136.522 177.601 137.306 174.634L139.917 164.764C140.193 163.721 141.007 162.907 142.05 162.631L151.731 160.071C154.71 159.283 154.707 155.053 151.727 154.269L142.054 151.724C141.009 151.449 140.192 150.634 139.916 149.589L137.307 139.707C136.523 136.739 132.316 136.725 131.511 139.687L128.816 149.609C128.535 150.643 127.725 151.449 126.689 151.723L117.078 154.27C114.105 155.058 114.102 159.277 117.075 160.069Z" fill-rule="evenodd" fill="#FFFFFF"/>
		<path id="矩形 2 (边框)" d="M126.693 162.632C127.726 162.908 128.535 163.712 128.816 164.744L131.511 174.654C132.317 177.615 136.522 177.601 137.306 174.634L139.917 164.764C140.193 163.721 141.007 162.907 142.05 162.631L151.731 160.071C154.71 159.283 154.707 155.053 151.727 154.269L142.054 151.724C141.009 151.449 140.192 150.634 139.916 149.589L137.307 139.707C136.523 136.739 132.316 136.725 131.511 139.687L128.816 149.609C128.535 150.643 127.725 151.449 126.689 151.723L117.078 154.27C114.105 155.058 114.102 159.277 117.075 160.069L126.693 162.632Z" stroke="#EBD49E" stroke-width="3.000000" stroke-linejoin="round"/>
		<path id="矩形 2 (边框)" d="M56.0791 123.353L87.8928 131.831C88.926 132.106 89.7346 132.911 90.0152 133.942L98.7956 166.223C99.6009 169.184 103.806 169.169 104.591 166.203L113.117 133.963C113.393 132.92 114.207 132.105 115.25 131.829L147.295 123.355C150.274 122.567 150.271 118.337 147.291 117.553L115.254 109.126C114.209 108.851 113.393 108.035 113.117 106.99L104.591 74.7072C103.807 71.7393 99.5999 71.7245 98.7953 74.6868L90.0155 107.011C89.7347 108.044 88.9243 108.85 87.889 109.124L56.0829 117.555C53.1098 118.343 53.107 122.561 56.0791 123.353Z" fill-rule="evenodd" fill="#FFFFFF"/>
		<path id="矩形 2 (边框)" d="M87.8928 131.831C88.926 132.106 89.7346 132.911 90.0152 133.942L98.7956 166.223C99.6009 169.184 103.806 169.169 104.591 166.203L113.117 133.963C113.393 132.92 114.207 132.105 115.25 131.829L147.295 123.355C150.274 122.567 150.271 118.337 147.291 117.553L115.254 109.126C114.209 108.851 113.393 108.035 113.117 106.99L104.591 74.7072C103.807 71.7393 99.5999 71.7245 98.7953 74.6868L90.0155 107.011C89.7347 108.044 88.9243 108.85 87.889 109.124L56.0829 117.555C53.1098 118.343 53.107 122.561 56.0791 123.353L87.8928 131.831Z" stroke="#EBD49E" stroke-width="3.000000" stroke-linejoin="round"/>
	</g>
	<defs>
		<clipPath id="clip13_20">
			<rect id="GCG" width="256.000000" height="256.000000" fill="white"/>
		</clipPath>
	</defs>
</svg>
