<svg width="256.000000" height="256.000000" viewBox="0 0 256 256" fill="none" xmlns="http://www.w3.org/2000/svg" xmlns:xlink="http://www.w3.org/1999/xlink">
	<desc>
			Created with Pixso.
	</desc>
	<g clip-path="url(#clip6_36)">
		<path id="矢量 2" d="M246.476 98.0975C247.471 102.091 248 106.279 248 110.596C248 114.912 247.471 119.101 246.475 123.095L246.296 123.001C241.533 123.651 237.104 126.511 234.516 131.161C231.928 135.812 231.755 141.221 233.594 145.826L233.709 146.049C228.013 151.879 220.918 156.243 212.995 158.549L212.702 158.6C209.777 154.645 205.176 152.096 200 152.096C194.824 152.096 190.223 154.645 187.298 158.6L187.008 158.55C179.083 156.244 171.988 151.88 166.292 146.049L166.185 145.783C167.992 141.194 167.807 135.819 165.234 131.194C162.66 126.569 158.265 123.715 153.532 123.044L153.564 123.253C152.543 119.211 152 114.969 152 110.596C152 106.222 152.543 101.98 153.564 97.9388L153.532 97.8108C158.265 97.1399 162.66 94.286 165.234 89.6612C167.784 85.0791 167.989 79.7601 166.235 75.1997C171.975 69.305 179.142 64.9029 187.15 62.6L187.346 62.6561C190.273 66.5738 194.853 69.0955 200 69.0955C205.147 69.0955 209.727 66.5738 212.654 62.6561L212.85 62.6C216.782 63.7307 220.511 65.3674 223.968 67.4384C227.472 69.5381 230.698 72.0842 233.571 75.0016L233.594 75.0289C231.755 79.6339 231.928 85.0432 234.516 89.6936C237.104 94.3438 241.533 97.2036 246.296 97.8541L246.476 98.0975ZM166.235 75.1997C166.217 75.2185 166.198 75.2376 166.18 75.2564L166.185 75.0721C166.202 75.1146 166.219 75.1571 166.235 75.1997ZM200 85.8401C186.745 85.8401 176 96.9883 176 110.74C176 124.492 186.745 135.64 200 135.64C213.255 135.64 224 124.492 224 110.74C224 103.864 221.314 97.6392 216.971 93.1332C212.627 88.6271 206.627 85.8401 200 85.8401Z" fill-rule="evenodd" fill="#CFBC94"/>
		<path id="矢量 1" d="M79.1665 47C69.9321 49.364 61.2163 53.0104 53.0191 57.9392L53.3272 58.4559L53.1354 58.6067C56.825 63.3379 58.4983 68.7184 58.1553 74.7483C57.8095 80.8272 55.4909 86.0215 51.1993 90.3314C46.9131 94.6358 41.7475 96.9639 35.7023 97.3158C29.7066 97.6647 24.3533 95.9934 19.6422 92.3017L19.0233 93.0983L18.5594 92.8219C14.1647 100.263 10.6722 109.132 8.08205 119.429L9.26949 119.73C9.30888 119.574 9.34846 119.418 9.38828 119.262C14.9996 120.141 19.7105 122.746 23.521 127.079C27.5047 131.609 29.4966 136.899 29.4966 142.949C29.4966 149.028 27.4879 154.337 23.4706 158.876C19.4866 163.378 14.5346 166.001 8.61458 166.746L8.66003 167.11L8 167.278C10.2697 176.299 13.8736 184.996 18.8118 193.368L19.1653 193.967L19.7136 193.541C24.424 189.878 29.7678 188.226 35.7452 188.585C41.7733 188.947 46.9246 191.274 51.1993 195.567C55.4762 199.862 57.7939 205.038 58.1521 211.095C58.5073 217.102 56.8585 222.47 53.2058 227.201L52.7812 227.75L53.3766 228.106Q65.4245 235.301 79.1417 238.827L79.8141 239L79.9011 238.309C80.6484 232.369 83.2623 227.401 87.7429 223.406C92.2613 219.376 97.5451 217.362 103.594 217.362C109.643 217.362 114.927 219.376 119.445 223.406C123.926 227.401 126.54 232.369 127.287 238.309L127.374 239L128.047 238.827C137.35 236.436 145.998 232.849 153.99 228.067L153.682 227.548L154.036 227.27C150.355 222.539 148.688 217.161 149.034 211.137C149.383 205.063 151.701 199.873 155.989 195.567C160.272 191.265 165.434 188.937 171.475 188.583C177.466 188.231 182.816 189.898 187.527 193.581L188.075 194.01L188.43 193.41C192.606 186.347 195.845 178.906 198.148 171.087L197.686 170.949L197.785 170.323C192.051 169.405 187.278 166.724 183.467 162.279C179.617 157.787 177.692 152.574 177.692 146.639C177.692 140.374 179.809 134.944 184.045 130.349C188.257 125.78 193.441 123.242 199.597 122.736L199.554 122.211L200 122.115C197.983 112.657 194.752 103.84 190.309 95.6656L189.977 95.0539L189.414 95.4612C184.714 98.8619 179.459 100.34 173.649 99.8957C167.778 99.4464 162.757 97.1281 158.587 92.9406C154.205 88.5394 151.88 83.2321 151.614 77.0183C151.35 70.8427 153.178 65.3893 157.099 60.6584L156.861 60.4592L157.245 59.8665C148.192 53.9586 138.451 49.6699 128.023 47.0002L127.833 47.7464L127.276 47.6738C126.51 53.5937 123.89 58.5422 119.415 62.5193Q112.645 68.5365 103.594 68.5365C97.5601 68.5365 92.2864 66.5308 87.7728 62.5193C83.2981 58.5423 80.6777 53.5938 79.9118 47.6738L79.3559 47.7463L79.1665 47ZM152.584 142.949C152.584 170.121 130.651 192.148 103.594 192.148C76.5376 192.148 54.604 170.121 54.604 142.949C54.604 115.778 76.5376 93.7507 103.594 93.7507C130.651 93.7507 152.584 115.778 152.584 142.949ZM140.337 142.949C140.337 163.328 123.886 179.848 103.594 179.848C83.3017 179.848 66.8515 163.328 66.8515 142.949C66.8515 122.57 83.3017 106.05 103.594 106.05C123.886 106.05 140.337 122.57 140.337 142.949Z" fill-rule="evenodd" fill="#EBD49E"/>
	</g>
	<defs>
		<clipPath id="clip6_36">
			<rect id="setting" width="256.000000" height="256.000000" fill="white"/>
		</clipPath>
	</defs>
</svg>
