<svg width="256.000000" height="256.000000" viewBox="0 0 256 256" fill="none" xmlns="http://www.w3.org/2000/svg" xmlns:xlink="http://www.w3.org/1999/xlink">
	<desc>
			Created with Pixso.
	</desc>
	<defs>
		<clipPath id="clip18_9">
			<rect id="画板 1" width="256.000000" height="256.000000" fill="white"/>
		</clipPath>
	</defs>
	<g clip-path="url(#clip18_9)">
		<path id="矢量 1" d="M179.296 89.068L77.4929 89.068C75.9465 89.068 74.403 89.1351 72.8624 89.2694C71.3219 89.4036 69.79 89.6045 68.2669 89.872C66.7438 90.1395 65.2352 90.4726 63.7411 90.8714C62.2469 91.2701 60.7729 91.7329 59.3191 92.2599C57.8652 92.7868 56.437 93.3759 55.0343 94.0271C53.6317 94.6783 52.26 95.3891 50.9192 96.1596C49.5784 96.9301 48.2736 97.7574 47.0048 98.6414C45.7359 99.5254 44.5079 100.463 43.3206 101.454C42.1333 102.444 40.9912 103.485 39.8944 104.575C38.7977 105.665 37.7503 106.801 36.7523 107.982C35.7543 109.164 34.8095 110.386 33.9178 111.649C33.0262 112.913 32.191 114.213 31.4124 115.549C30.6338 116.885 29.9147 118.252 29.255 119.651C28.5954 121.05 27.9977 122.474 27.462 123.925C26.9262 125.376 26.4545 126.847 26.0467 128.339C25.639 129.83 25.2968 131.337 25.0201 132.858L11.6298 206.515C11.3747 207.92 11.197 209.335 11.0967 210.759C10.9964 212.184 10.9741 213.609 11.0299 215.036C11.0857 216.463 11.2192 217.883 11.4304 219.295C11.6415 220.707 11.9292 222.104 12.2932 223.485C12.6573 224.865 13.0956 226.222 13.6082 227.555C14.1208 228.887 14.7045 230.188 15.3595 231.457C16.0145 232.726 16.7368 233.955 17.5263 235.144C18.3158 236.334 19.1679 237.477 20.0826 238.573C20.9973 239.669 21.969 240.712 22.9979 241.702C24.0267 242.692 25.1065 243.623 26.2373 244.494C27.368 245.366 28.5429 246.173 29.762 246.915C30.9811 247.658 32.2371 248.332 33.53 248.937C34.8229 249.542 36.1449 250.075 37.4961 250.535C38.8473 250.996 40.2196 251.381 41.613 251.691C43.0064 252.001 44.4125 252.234 45.8314 252.39C47.2503 252.546 48.6735 252.624 50.1009 252.624L206.688 252.624C208.115 252.623 209.539 252.545 210.958 252.389C212.378 252.233 213.784 252 215.178 251.69C216.572 251.38 217.945 250.995 219.296 250.535C220.648 250.074 221.97 249.542 223.263 248.936C224.557 248.331 225.813 247.657 227.033 246.914C228.252 246.172 229.427 245.364 230.558 244.493C231.689 243.621 232.769 242.691 233.798 241.701C234.827 240.711 235.799 239.668 236.714 238.572C237.629 237.475 238.481 236.332 239.271 235.143C240.061 233.953 240.783 232.724 241.438 231.455C242.093 230.187 242.677 228.886 243.19 227.553C243.702 226.221 244.141 224.864 244.505 223.483C244.869 222.103 245.156 220.706 245.367 219.294C245.578 217.882 245.712 216.462 245.767 215.035C245.823 213.609 245.8 212.183 245.7 210.759C245.599 209.335 245.421 207.92 245.166 206.515L231.776 132.858C231.499 131.337 231.157 129.83 230.749 128.339C230.341 126.847 229.869 125.376 229.334 123.925C228.798 122.474 228.2 121.05 227.541 119.651C226.881 118.252 226.162 116.885 225.383 115.549C224.605 114.213 223.77 112.913 222.878 111.65C221.986 110.386 221.042 109.164 220.044 107.982C219.046 106.801 217.998 105.665 216.901 104.575C215.805 103.485 214.663 102.445 213.475 101.454C212.288 100.463 211.06 99.5255 209.791 98.6415C208.522 97.7575 207.217 96.9302 205.877 96.1597C204.536 95.3892 203.164 94.6784 201.761 94.0272C200.359 93.376 198.931 92.7869 197.477 92.26C196.023 91.733 194.549 91.2702 193.055 90.8714C191.561 90.4727 190.052 90.1396 188.529 89.8721C187.006 89.6045 185.474 89.4037 183.933 89.2694C182.393 89.1351 180.842 89.068 179.296 89.068ZM59.8218 6.03157L34.7196 19.2085C34.1547 19.5051 33.6074 19.8312 33.0776 20.1868C32.5478 20.5424 32.0387 20.9254 31.5501 21.3358C31.0616 21.7463 30.5965 22.1817 30.1548 22.6422C29.7132 23.1027 29.2975 23.5856 28.9079 24.0908C28.5182 24.5961 28.1568 25.1208 27.8236 25.6649C27.4904 26.2091 27.1874 26.7696 26.9146 27.3464C26.6418 27.9231 26.4007 28.5129 26.1914 29.1156C25.9821 29.7184 25.8057 30.3306 25.6623 30.9524C25.5189 31.5741 25.4093 32.2017 25.3335 32.8353C25.2577 33.4688 25.2161 34.1046 25.2087 34.7426C25.2014 35.3806 25.2283 36.0171 25.2894 36.6523C25.3506 37.2874 25.4457 37.9174 25.5747 38.5423C25.7037 39.1671 25.8659 39.7833 26.0612 40.3907C26.2566 40.9981 26.484 41.5933 26.7434 42.1762C27.0028 42.7591 27.2928 43.3264 27.6133 43.8782C27.9338 44.4299 28.2831 44.9628 28.6609 45.4769L50.1578 74.7107C50.9838 75.8339 51.9288 76.8459 52.9928 77.7468C54.0568 78.6477 55.2108 79.4129 56.4548 80.0422C57.6987 80.6716 58.9987 81.1481 60.3547 81.4716C61.7106 81.7951 63.0856 81.9569 64.4796 81.9569L84.3196 81.9569C84.709 81.9569 85.0972 81.9357 85.4843 81.8932C85.8714 81.8507 86.255 81.7873 86.6351 81.7028C87.0152 81.6183 87.3896 81.5133 87.7582 81.3878C88.1268 81.2623 88.4875 81.1171 88.8402 80.9521C89.1929 80.7871 89.5355 80.6033 89.8681 80.4008C90.2007 80.1983 90.5212 79.9782 90.8297 79.7406C91.1382 79.503 91.4328 79.2492 91.7135 78.9794C91.9942 78.7095 92.2593 78.4251 92.5089 78.1261C92.7584 77.8272 92.9909 77.5156 93.2063 77.1912C93.4217 76.8668 93.6188 76.5317 93.7975 76.1857C93.9762 75.8397 94.1355 75.485 94.2754 75.1216C94.4153 74.7582 94.5349 74.3883 94.6342 74.0118C94.7336 73.6353 94.8121 73.2545 94.8697 72.8694C94.9274 72.4843 94.9638 72.0972 94.9791 71.7081C94.9943 71.319 94.9883 70.9302 94.961 70.5418C94.9336 70.1534 94.8852 69.7676 94.8156 69.3844L85.5712 18.5898C85.4465 17.9067 85.2824 17.2332 85.0789 16.5694C84.8753 15.9055 84.6337 15.2558 84.354 14.6203C84.0743 13.9848 83.7584 13.3677 83.4065 12.7692C83.0545 12.1707 82.6687 11.5947 82.2493 11.0414C81.8298 10.4881 81.3794 9.96111 80.8982 9.46054C80.417 8.95998 79.9082 8.48921 79.3718 8.04826C78.8355 7.60732 78.2752 7.1992 77.691 6.8239C77.1068 6.44861 76.5027 6.10869 75.8786 5.80418C75.2546 5.49966 74.6149 5.23264 73.9596 5.00308C73.3043 4.77351 72.6378 4.58301 71.9602 4.43153C71.2826 4.28008 70.5984 4.16869 69.9077 4.09738C69.217 4.02608 68.5245 3.99535 67.8302 4.00519C67.1359 4.01503 66.4446 4.06538 65.7562 4.15622C65.0678 4.24707 64.3871 4.37781 63.714 4.54842C63.0409 4.71902 62.3801 4.92834 61.7316 5.17639C61.083 5.42442 60.437 5.70949 59.8218 6.03157ZM196.967 6.03157L222.069 19.2085C222.634 19.5051 223.181 19.8312 223.711 20.1868C224.241 20.5424 224.75 20.9254 225.238 21.3358C225.727 21.7463 226.192 22.1817 226.634 22.6422C227.075 23.1027 227.491 23.5856 227.881 24.0908C228.27 24.5961 228.632 25.1208 228.965 25.6649C229.298 26.2091 229.601 26.7696 229.874 27.3464C230.147 27.9231 230.388 28.5129 230.597 29.1156C230.806 29.7184 230.983 30.3306 231.126 30.9524C231.27 31.5741 231.379 32.2017 231.455 32.8353C231.531 33.4688 231.572 34.1046 231.58 34.7426C231.587 35.3806 231.56 36.0172 231.499 36.6523C231.438 37.2874 231.343 37.9174 231.214 38.5423C231.085 39.1671 230.923 39.7833 230.727 40.3907C230.532 40.9981 230.305 41.5933 230.045 42.1762C229.786 42.7591 229.496 43.3265 229.175 43.8782C228.855 44.4299 228.506 44.9628 228.128 45.4769L206.631 74.7107C205.805 75.8339 204.86 76.8459 203.796 77.7468C202.732 78.6477 201.578 79.4129 200.334 80.0422C199.09 80.6716 197.79 81.1481 196.434 81.4716C195.078 81.7951 193.703 81.9569 192.309 81.9569L172.469 81.9569C172.08 81.9569 171.691 81.9357 171.304 81.8932C170.917 81.8507 170.534 81.7873 170.154 81.7028C169.773 81.6183 169.399 81.5133 169.03 81.3878C168.662 81.2623 168.301 81.1171 167.948 80.9521C167.596 80.7871 167.253 80.6033 166.92 80.4008C166.588 80.1983 166.267 79.9782 165.959 79.7406C165.65 79.503 165.356 79.2492 165.075 78.9794C164.794 78.7095 164.529 78.4251 164.28 78.1261C164.03 77.8272 163.798 77.5156 163.582 77.1912C163.367 76.8668 163.17 76.5317 162.991 76.1857C162.812 75.8397 162.653 75.485 162.513 75.1216C162.373 74.7582 162.254 74.3883 162.154 74.0118C162.055 73.6353 161.977 73.2545 161.919 72.8694C161.861 72.4843 161.825 72.0972 161.81 71.7081C161.794 71.319 161.8 70.9302 161.828 70.5418C161.855 70.1534 161.903 69.7676 161.973 69.3844L171.217 18.5898C171.342 17.9065 171.506 17.2328 171.71 16.5686C171.913 15.9046 172.155 15.2546 172.434 14.6188C172.714 13.9831 173.03 13.3658 173.382 12.767C173.734 12.1683 174.12 11.5921 174.539 11.0386C174.959 10.4851 175.41 9.95795 175.891 9.45721C176.372 8.95648 176.881 8.48558 177.418 8.04449C177.954 7.60342 178.515 7.19521 179.099 6.81982C179.684 6.44444 180.288 6.10448 180.912 5.79994C181.537 5.49539 182.176 5.22836 182.832 4.99881C183.488 4.76927 184.154 4.57881 184.832 4.42743C185.51 4.27603 186.194 4.16475 186.885 4.09358C187.576 4.02242 188.269 3.99184 188.964 4.00186C189.658 4.01189 190.35 4.06244 191.038 4.15352C191.727 4.24461 192.408 4.3756 193.081 4.54649C193.754 4.71738 194.415 4.927 195.064 5.17537C195.712 5.42374 196.352 5.70914 196.967 6.03157Z" fill-rule="nonzero" fill="#000000" fill-opacity="0.298039"/>
		<path id="矢量 1" d="M179.296 89.068L77.4929 89.068C75.9465 89.068 74.403 89.1351 72.8624 89.2694C71.3219 89.4036 69.79 89.6045 68.2669 89.872C66.7438 90.1395 65.2352 90.4726 63.7411 90.8714C62.2469 91.2701 60.7729 91.7329 59.3191 92.2599C57.8652 92.7868 56.437 93.3759 55.0343 94.0271C53.6317 94.6783 52.26 95.3891 50.9192 96.1596C49.5784 96.9301 48.2736 97.7574 47.0048 98.6414C45.7359 99.5254 44.5079 100.463 43.3206 101.454C42.1333 102.444 40.9912 103.485 39.8944 104.575C38.7977 105.665 37.7503 106.801 36.7523 107.982C35.7543 109.164 34.8095 110.386 33.9178 111.649C33.0262 112.913 32.191 114.213 31.4124 115.549C30.6338 116.885 29.9147 118.252 29.255 119.651C28.5954 121.05 27.9977 122.474 27.462 123.925C26.9262 125.376 26.4545 126.847 26.0467 128.339C25.639 129.83 25.2968 131.337 25.0201 132.858L11.6298 206.515C11.3747 207.92 11.197 209.335 11.0967 210.759C10.9964 212.184 10.9741 213.609 11.0299 215.036C11.0857 216.463 11.2192 217.883 11.4304 219.295C11.6415 220.707 11.9292 222.104 12.2932 223.485C12.6573 224.865 13.0956 226.222 13.6082 227.555C14.1208 228.887 14.7045 230.188 15.3595 231.457C16.0145 232.726 16.7368 233.955 17.5263 235.144C18.3158 236.334 19.1679 237.477 20.0826 238.573C20.9973 239.669 21.969 240.712 22.9979 241.702C24.0267 242.692 25.1065 243.623 26.2373 244.494C27.368 245.366 28.5429 246.173 29.762 246.915C30.9811 247.658 32.2371 248.332 33.53 248.937C34.8229 249.542 36.1449 250.075 37.4961 250.535C38.8473 250.996 40.2196 251.381 41.613 251.691C43.0064 252.001 44.4125 252.234 45.8314 252.39C47.2503 252.546 48.6735 252.624 50.1009 252.624L206.688 252.624C208.115 252.623 209.539 252.545 210.958 252.389C212.378 252.233 213.784 252 215.178 251.69C216.572 251.38 217.945 250.995 219.296 250.535C220.648 250.074 221.97 249.542 223.263 248.936C224.557 248.331 225.813 247.657 227.033 246.914C228.252 246.172 229.427 245.364 230.558 244.493C231.689 243.621 232.769 242.691 233.798 241.701C234.827 240.711 235.799 239.668 236.714 238.572C237.629 237.475 238.481 236.332 239.271 235.143C240.061 233.953 240.783 232.724 241.438 231.455C242.093 230.187 242.677 228.886 243.19 227.553C243.702 226.221 244.141 224.864 244.505 223.483C244.869 222.103 245.156 220.706 245.367 219.294C245.578 217.882 245.712 216.462 245.767 215.035C245.823 213.609 245.8 212.183 245.7 210.759C245.599 209.335 245.421 207.92 245.166 206.515L231.776 132.858C231.499 131.337 231.157 129.83 230.749 128.339C230.341 126.847 229.869 125.376 229.334 123.925C228.798 122.474 228.2 121.05 227.541 119.651C226.881 118.252 226.162 116.885 225.383 115.549C224.605 114.213 223.77 112.913 222.878 111.65C221.986 110.386 221.042 109.164 220.044 107.982C219.046 106.801 217.998 105.665 216.901 104.575C215.805 103.485 214.663 102.445 213.475 101.454C212.288 100.463 211.06 99.5255 209.791 98.6415C208.522 97.7575 207.217 96.9302 205.877 96.1597C204.536 95.3892 203.164 94.6784 201.761 94.0272C200.359 93.376 198.931 92.7869 197.477 92.26C196.023 91.733 194.549 91.2702 193.055 90.8714C191.561 90.4727 190.052 90.1396 188.529 89.8721C187.006 89.6045 185.474 89.4037 183.933 89.2694C182.393 89.1351 180.842 89.068 179.296 89.068ZM77.493 96.1791L179.296 96.1791C180.636 96.1791 181.974 96.2373 183.309 96.3537C184.644 96.4701 185.971 96.6442 187.291 96.8761C188.611 97.1079 189.919 97.3967 191.214 97.7423C192.509 98.0879 193.786 98.489 195.046 98.9457C196.306 99.4024 197.544 99.913 198.759 100.477C199.975 101.042 201.164 101.658 202.326 102.326C203.488 102.993 204.619 103.71 205.718 104.477C206.818 105.243 207.882 106.055 208.911 106.914C209.94 107.773 210.93 108.674 211.88 109.619C212.831 110.564 213.739 111.548 214.604 112.572C215.469 113.596 216.287 114.655 217.06 115.75C217.833 116.845 218.557 117.972 219.231 119.13C219.906 120.288 220.529 121.473 221.101 122.685C221.673 123.897 222.191 125.132 222.655 126.389C223.119 127.646 223.528 128.921 223.881 130.214C224.235 131.507 224.531 132.812 224.771 134.131L238.161 207.788C238.37 208.937 238.516 210.094 238.598 211.26C238.68 212.425 238.699 213.591 238.653 214.758C238.608 215.925 238.499 217.086 238.326 218.242C238.154 219.397 237.918 220.539 237.621 221.669C237.323 222.798 236.964 223.908 236.545 224.998C236.126 226.089 235.648 227.153 235.113 228.191C234.577 229.228 233.986 230.234 233.34 231.207C232.694 232.181 231.997 233.116 231.249 234.012C230.501 234.909 229.706 235.763 228.864 236.573C228.022 237.382 227.139 238.144 226.214 238.857C225.288 239.57 224.327 240.231 223.33 240.838C222.332 241.446 221.305 241.998 220.247 242.493C219.189 242.988 218.107 243.424 217.002 243.801C215.896 244.178 214.773 244.493 213.633 244.747C212.493 245.001 211.342 245.192 210.181 245.32C209.02 245.448 207.856 245.512 206.688 245.512L50.1009 245.512C48.9327 245.512 47.768 245.448 46.6068 245.321C45.4456 245.193 44.2948 245.002 43.1545 244.749C42.0142 244.495 40.8911 244.18 39.7853 243.803C38.6795 243.426 37.5976 242.991 36.5395 242.495C35.4814 242 34.4536 241.449 33.4559 240.841C32.4583 240.233 31.4967 239.573 30.5714 238.86C29.6461 238.147 28.7624 237.385 27.9205 236.575C27.0785 235.766 26.2833 234.912 25.5348 234.015C24.7864 233.118 24.0891 232.183 23.443 231.21C22.7969 230.237 22.2059 229.231 21.67 228.193C21.1341 227.155 20.6564 226.091 20.237 225C19.8177 223.91 19.4591 222.8 19.1612 221.67C18.8634 220.541 18.6282 219.398 18.4555 218.243C18.2828 217.088 18.1737 215.926 18.1282 214.759C18.0827 213.592 18.101 212.425 18.1832 211.26C18.2655 210.095 18.4111 208.937 18.6201 207.788L32.0103 134.131C32.2501 132.812 32.5467 131.507 32.9001 130.214C33.2535 128.921 33.6624 127.646 34.1267 126.389C34.591 125.132 35.109 123.897 35.6806 122.685C36.2523 121.473 36.8756 120.287 37.5504 119.129C38.2251 117.972 38.9489 116.845 39.7217 115.75C40.4944 114.655 41.3133 113.596 42.1782 112.572C43.0431 111.548 43.9508 110.564 44.9013 109.619C45.8519 108.674 46.8416 107.772 47.8706 106.914C48.8995 106.055 49.9638 105.242 51.0635 104.476C52.1631 103.71 53.2939 102.993 54.4559 102.325C55.6179 101.658 56.8067 101.041 58.0222 100.477C59.2378 99.9127 60.4756 99.4022 61.7356 98.9455C62.9956 98.4888 64.273 98.0877 65.5679 97.7421C66.8628 97.3965 68.1702 97.1078 69.4902 96.876C70.8102 96.6441 72.1377 96.47 73.4729 96.3537C74.808 96.2373 76.1528 96.1791 77.493 96.1791Z" fill-rule="nonzero" fill="#FFFFFF"/>
		<path id="矢量 1" d="M59.8218 6.03157L34.7196 19.2085C34.1547 19.5051 33.6074 19.8312 33.0776 20.1868C32.5478 20.5424 32.0387 20.9254 31.5501 21.3358C31.0616 21.7463 30.5965 22.1817 30.1548 22.6422C29.7132 23.1027 29.2975 23.5856 28.9079 24.0908C28.5182 24.5961 28.1568 25.1208 27.8236 25.6649C27.4904 26.2091 27.1874 26.7696 26.9146 27.3464C26.6418 27.9232 26.4007 28.5129 26.1914 29.1156C25.9821 29.7184 25.8057 30.3306 25.6623 30.9524C25.5189 31.5741 25.4093 32.2017 25.3335 32.8353C25.2577 33.4688 25.2161 34.1046 25.2087 34.7426C25.2014 35.3806 25.2283 36.0171 25.2894 36.6523C25.3506 37.2874 25.4457 37.9174 25.5747 38.5423C25.7037 39.1671 25.8659 39.7833 26.0612 40.3907C26.2566 40.9981 26.484 41.5933 26.7434 42.1762C27.0028 42.7591 27.2928 43.3264 27.6133 43.8782C27.9339 44.4299 28.2831 44.9628 28.6609 45.4769L50.1578 74.7107C50.9838 75.8339 51.9288 76.8459 52.9928 77.7468C54.0568 78.6477 55.2108 79.4129 56.4548 80.0422C57.6987 80.6716 58.9987 81.1481 60.3547 81.4716C61.7106 81.7951 63.0856 81.9569 64.4796 81.9569L84.3196 81.9569C84.709 81.9569 85.0972 81.9357 85.4843 81.8932C85.8714 81.8507 86.255 81.7872 86.6351 81.7028C87.0152 81.6183 87.3896 81.5133 87.7582 81.3878C88.1268 81.2623 88.4875 81.1171 88.8402 80.9521C89.1929 80.7871 89.5355 80.6033 89.8681 80.4008C90.2007 80.1983 90.5213 79.9782 90.8297 79.7406C91.1382 79.503 91.4328 79.2492 91.7135 78.9794C91.9942 78.7095 92.2593 78.4251 92.5089 78.1261C92.7584 77.8272 92.9909 77.5156 93.2063 77.1912C93.4217 76.8668 93.6188 76.5316 93.7975 76.1857C93.9762 75.8397 94.1355 75.485 94.2754 75.1216C94.4153 74.7582 94.5349 74.3883 94.6342 74.0118C94.7336 73.6353 94.8121 73.2545 94.8697 72.8694C94.9274 72.4843 94.9638 72.0972 94.9791 71.7081C94.9943 71.319 94.9883 70.9302 94.961 70.5418C94.9336 70.1534 94.8852 69.7676 94.8156 69.3844L85.5712 18.5898C85.4465 17.9067 85.2824 17.2332 85.0789 16.5694C84.8753 15.9055 84.6337 15.2558 84.354 14.6203C84.0743 13.9848 83.7585 13.3677 83.4065 12.7692C83.0545 12.1707 82.6687 11.5947 82.2493 11.0414C81.8298 10.4881 81.3794 9.96111 80.8982 9.46054C80.417 8.95998 79.9082 8.48921 79.3718 8.04826C78.8355 7.60732 78.2752 7.19919 77.691 6.8239C77.1068 6.44859 76.5027 6.10869 75.8786 5.80418C75.2546 5.49966 74.6149 5.23265 73.9596 5.00308C73.3043 4.77353 72.6378 4.58299 71.9602 4.43153C71.2826 4.28006 70.5984 4.16869 69.9077 4.09738C69.217 4.02608 68.5245 3.99535 67.8302 4.00519C67.1359 4.01503 66.4446 4.06537 65.7562 4.15622C65.0678 4.24707 64.3871 4.37781 63.714 4.54842C63.041 4.71904 62.3801 4.92836 61.7316 5.17639C61.083 5.42444 60.437 5.7095 59.8218 6.03157ZM77.5285 16.812C78.0334 17.772 78.3818 18.8031 78.5809 19.8627L87.8183 70.6573C87.8646 70.9135 87.8826 71.1715 87.8722 71.4316C87.8619 71.6916 87.8234 71.9475 87.7569 72.1991C87.6904 72.4507 87.5974 72.6921 87.4778 72.9233C87.3583 73.1545 87.2151 73.3699 87.0482 73.5697C86.8814 73.7694 86.6949 73.9487 86.4887 74.1075C86.2825 74.2662 86.0615 74.4007 85.8257 74.511C85.59 74.6212 85.3451 74.7046 85.0911 74.7611C84.837 74.8176 84.5799 74.8458 84.3196 74.8458L64.4796 74.8458C63.6429 74.8463 62.8176 74.7496 62.0036 74.5558C61.1897 74.3621 60.4093 74.0765 59.6626 73.6991C58.9158 73.3217 58.223 72.8628 57.5843 72.3224C56.9455 71.782 56.3782 71.1748 55.8823 70.5009L34.3925 41.2671C33.9373 40.6484 33.5534 39.9882 33.2408 39.2865C32.9283 38.5848 32.6942 37.8579 32.5387 37.1057C32.3832 36.3534 32.3098 35.5933 32.3185 34.8252C32.3272 34.0571 32.4178 33.2988 32.5903 32.5503C32.7628 31.8018 33.0133 31.0803 33.3417 30.3859C33.6701 29.6915 34.0688 29.0402 34.5379 28.4319C35.007 27.8237 35.5357 27.2725 36.1238 26.7784C36.712 26.2844 37.3462 25.8588 38.0263 25.5018L63.1285 12.3249C63.7486 11.9995 64.3945 11.7378 65.0661 11.5396C65.7377 11.3415 66.4223 11.2108 67.1197 11.1474C67.8171 11.0841 68.5139 11.0894 69.2103 11.1633C69.9066 11.2372 70.5891 11.3784 71.2576 11.5867C71.9262 11.795 72.568 12.0665 73.1831 12.4013C73.7982 12.736 74.3747 13.1275 74.9127 13.5758C75.4506 14.024 75.9397 14.5205 76.3799 15.0651C76.8201 15.6097 77.203 16.192 77.5285 16.812Z" fill-rule="nonzero" fill="#FFFFFF"/>
		<path id="矢量 1" d="M62.9934 50.2413C63.3763 50.0774 63.7756 49.9836 64.1915 49.96C64.6073 49.9363 65.0148 49.9843 65.4137 50.1039C65.8127 50.2234 66.1794 50.4074 66.5137 50.6559C66.848 50.9043 67.13 51.2023 67.3596 51.5498L67.6654 52.1116L78.3321 77.0004C78.5096 77.409 78.607 77.8359 78.6241 78.281C78.6412 78.7262 78.577 79.1593 78.4313 79.5802C78.2857 80.0012 78.0685 80.3814 77.78 80.7208C77.4914 81.0602 77.1511 81.3357 76.759 81.5471C76.3669 81.7586 75.9498 81.8917 75.5077 81.9464C75.0656 82.0011 74.6286 81.9736 74.1968 81.8641C73.765 81.7545 73.3678 81.5703 73.0052 81.3115C72.6427 81.0526 72.3395 80.7368 72.0956 80.364L71.7898 79.8022L61.1232 54.9133C60.937 54.4796 60.841 54.0267 60.8352 53.5548C60.8294 53.0828 60.9141 52.6277 61.0896 52.1895C61.265 51.7514 61.5176 51.3635 61.8475 51.0259C62.1774 50.6883 62.5594 50.4268 62.9934 50.2413Z" fill-rule="nonzero" fill="#FFFFFF"/>
		<path id="矢量 1" d="M196.967 6.03157L222.069 19.2085C222.634 19.5051 223.181 19.8312 223.711 20.1868C224.241 20.5424 224.75 20.9254 225.238 21.3358C225.727 21.7463 226.192 22.1817 226.634 22.6422C227.075 23.1027 227.491 23.5856 227.881 24.0908C228.27 24.5961 228.632 25.1208 228.965 25.6649C229.298 26.2091 229.601 26.7696 229.874 27.3464C230.147 27.9231 230.388 28.5129 230.597 29.1156C230.806 29.7184 230.983 30.3306 231.126 30.9524C231.27 31.5741 231.379 32.2017 231.455 32.8353C231.531 33.4688 231.572 34.1046 231.58 34.7426C231.587 35.3806 231.56 36.0172 231.499 36.6523C231.438 37.2874 231.343 37.9174 231.214 38.5423C231.085 39.1671 230.923 39.7833 230.727 40.3907C230.532 40.9981 230.305 41.5933 230.045 42.1762C229.786 42.7591 229.496 43.3265 229.175 43.8782C228.855 44.4299 228.506 44.9628 228.128 45.4769L206.631 74.7107C205.805 75.8339 204.86 76.8459 203.796 77.7468C202.732 78.6477 201.578 79.4129 200.334 80.0422C199.09 80.6716 197.79 81.1481 196.434 81.4716C195.078 81.7951 193.703 81.9569 192.309 81.9569L172.469 81.9569C172.08 81.9569 171.691 81.9357 171.304 81.8932C170.917 81.8507 170.534 81.7873 170.154 81.7028C169.773 81.6183 169.399 81.5133 169.03 81.3878C168.662 81.2623 168.301 81.1171 167.948 80.9521C167.596 80.7871 167.253 80.6033 166.92 80.4008C166.588 80.1983 166.267 79.9782 165.959 79.7406C165.65 79.503 165.356 79.2492 165.075 78.9794C164.794 78.7095 164.529 78.4251 164.28 78.1261C164.03 77.8272 163.798 77.5156 163.582 77.1912C163.367 76.8668 163.17 76.5317 162.991 76.1857C162.812 75.8397 162.653 75.485 162.513 75.1216C162.373 74.7582 162.254 74.3883 162.154 74.0118C162.055 73.6353 161.977 73.2545 161.919 72.8694C161.861 72.4843 161.825 72.0972 161.81 71.7081C161.794 71.319 161.8 70.9302 161.828 70.5418C161.855 70.1534 161.903 69.7676 161.973 69.3844L171.217 18.5898C171.342 17.9065 171.506 17.2328 171.71 16.5686C171.913 15.9046 172.155 15.2546 172.434 14.6188C172.714 13.9831 173.03 13.3658 173.382 12.767C173.734 12.1683 174.12 11.5921 174.539 11.0386C174.959 10.4851 175.41 9.95795 175.891 9.45721C176.372 8.95648 176.881 8.48558 177.418 8.04449C177.954 7.60342 178.515 7.19521 179.099 6.81982C179.684 6.44444 180.288 6.10448 180.912 5.79994C181.537 5.49539 182.176 5.22836 182.832 4.99881C183.488 4.76927 184.154 4.57881 184.832 4.42743C185.51 4.27603 186.194 4.16475 186.885 4.09358C187.576 4.02242 188.269 3.99184 188.964 4.00186C189.658 4.01189 190.35 4.06244 191.038 4.15352C191.727 4.24461 192.408 4.3756 193.081 4.54649C193.754 4.71738 194.415 4.927 195.064 5.17537C195.712 5.42374 196.352 5.70914 196.967 6.03157ZM179.26 16.812C178.754 17.7752 178.403 18.7921 178.208 19.8627L168.97 70.6502C168.924 70.9063 168.906 71.1644 168.916 71.4245C168.927 71.6845 168.965 71.9404 169.032 72.192C169.098 72.4436 169.191 72.685 169.311 72.9162C169.43 73.1474 169.573 73.3628 169.74 73.5626C169.907 73.7623 170.094 73.9416 170.3 74.1003C170.506 74.2591 170.727 74.3936 170.963 74.5039C171.199 74.6141 171.443 74.6975 171.698 74.754C171.952 74.8104 172.209 74.8387 172.469 74.8387L192.309 74.8387C193.146 74.8391 193.971 74.7425 194.785 74.5487C195.599 74.355 196.379 74.0694 197.126 73.692C197.873 73.3146 198.566 72.8557 199.204 72.3153C199.843 71.7749 200.41 71.1677 200.906 70.4938L222.396 41.26C222.851 40.6413 223.235 39.9811 223.548 39.2794C223.86 38.5777 224.094 37.8508 224.25 37.0986C224.405 36.3463 224.479 35.5862 224.47 34.8181C224.461 34.05 224.371 33.2917 224.198 32.5432C224.026 31.7947 223.775 31.0732 223.447 30.3788C223.118 29.6844 222.72 29.0331 222.251 28.4248C221.782 27.8165 221.253 27.2654 220.665 26.7713C220.077 26.2773 219.442 25.8517 218.762 25.4947L193.66 12.3178C193.04 11.9924 192.394 11.7307 191.722 11.5325C191.051 11.3344 190.366 11.2037 189.669 11.1403C188.972 11.077 188.275 11.0823 187.578 11.1562C186.882 11.2301 186.199 11.3712 185.531 11.5796C184.862 11.7879 184.221 12.0594 183.605 12.3942C182.99 12.7289 182.414 13.1204 181.876 13.5687C181.338 14.017 180.849 14.5134 180.409 15.058C179.968 15.6026 179.586 16.192 179.26 16.812Z" fill-rule="nonzero" fill="#FFFFFF"/>
		<path id="矢量 1" d="M193.795 50.2413C193.412 50.0774 193.013 49.9836 192.597 49.96C192.181 49.9363 191.774 49.9843 191.375 50.1039C190.976 50.2234 190.609 50.4075 190.275 50.6559C189.941 50.9043 189.659 51.2023 189.429 51.5498L189.123 52.1116L178.457 77.0004C178.279 77.409 178.182 77.8359 178.164 78.281C178.147 78.7262 178.212 79.1593 178.357 79.5803C178.503 80.0013 178.72 80.3815 179.009 80.7209C179.297 81.0603 179.637 81.3357 180.03 81.5472C180.422 81.7587 180.839 81.8918 181.281 81.9464C181.723 82.0011 182.16 81.9737 182.592 81.8641C183.024 81.7546 183.421 81.5704 183.783 81.3115C184.146 81.0527 184.449 80.7368 184.693 80.364L184.999 79.8022L195.665 54.9133C195.852 54.4796 195.948 54.0268 195.953 53.5548C195.959 53.0828 195.874 52.6277 195.699 52.1896C195.524 51.7514 195.271 51.3635 194.941 51.0259C194.611 50.6883 194.229 50.4268 193.795 50.2413Z" fill-rule="nonzero" fill="#FFFFFF"/>
		<path id="矢量 1" d="M122.065 128.698L167.534 159.013C168.019 159.336 168.482 159.688 168.924 160.069C169.366 160.449 169.783 160.855 170.175 161.287C170.567 161.719 170.931 162.173 171.267 162.65C171.603 163.126 171.908 163.621 172.183 164.135C172.458 164.65 172.701 165.179 172.911 165.723C173.121 166.266 173.297 166.821 173.439 167.387C173.581 167.952 173.687 168.524 173.759 169.103C173.83 169.682 173.866 170.263 173.866 170.846C173.866 171.429 173.83 172.01 173.759 172.588C173.687 173.167 173.581 173.739 173.439 174.305C173.297 174.87 173.121 175.425 172.911 175.969C172.701 176.513 172.458 177.042 172.183 177.556C171.908 178.07 171.603 178.565 171.267 179.042C170.931 179.519 170.567 179.973 170.175 180.404C169.783 180.836 169.366 181.242 168.924 181.623C168.482 182.003 168.019 182.355 167.534 182.679L122.058 212.993C120.987 213.707 119.841 214.265 118.618 214.667C117.396 215.069 116.142 215.302 114.857 215.364C113.572 215.426 112.301 215.315 111.046 215.032C109.79 214.749 108.595 214.304 107.461 213.697C106.326 213.089 105.293 212.342 104.361 211.454C103.429 210.566 102.633 209.57 101.971 208.466C101.31 207.362 100.808 206.19 100.464 204.95C100.121 203.71 99.9498 202.447 99.9498 201.16L99.9498 140.531C99.9496 139.244 100.121 137.98 100.464 136.739C100.807 135.498 101.31 134.325 101.971 133.221C102.633 132.116 103.43 131.12 104.362 130.232C105.294 129.344 106.327 128.596 107.463 127.989C108.598 127.382 109.793 126.937 111.049 126.654C112.305 126.371 113.576 126.261 114.862 126.324C116.148 126.386 117.402 126.619 118.625 127.022C119.848 127.425 120.994 127.984 122.065 128.698Z" fill-rule="nonzero" fill="#FFFFFF"/>
	</g>
</svg>
